<svg width="384" height="172" viewBox="0 0 384 172" fill="none" xmlns="http://www.w3.org/2000/svg">
<path d="M19.4421 143.91C29.1744 143.583 39.2111 143.245 41.7372 143.166L46.327 143.019L49.4734 139.862C51.1988 138.114 58.2245 130.986 65.0698 124.006C71.9151 117.025 81.7037 107.056 86.8123 101.846C91.9209 96.636 97.5031 90.9635 99.2172 89.2494C100.92 87.524 102.296 86.0918 102.262 86.0692C102.206 86.0128 98.6421 85.8662 89.2482 85.5505C85.6507 85.4264 81.3315 85.2798 79.6625 85.2121C77.9822 85.1557 75.6704 85.0768 74.4975 85.0317C73.336 84.9866 72.3887 84.9528 72.3887 84.9415C72.3887 84.9077 91.3683 66.007 104.912 52.5533C119.415 38.141 119.99 37.5658 119.629 37.5433C119.415 37.532 116.077 37.4643 112.197 37.408C108.318 37.3403 103.954 37.2501 102.488 37.2162L99.8149 37.1486L111.78 23.9317C118.366 16.6691 125.831 8.4142 128.391 5.5949C132.417 1.15167 133.263 0.147996 132.936 0.260768C132.902 0.272045 118.107 8.5157 100.063 18.575C82.0194 28.6343 63.8406 38.7612 59.6793 41.0843C55.5067 43.4075 52.1235 45.3584 52.1573 45.4148C52.1912 45.4825 53.6347 45.4937 55.7322 45.4599C62.4083 45.3471 81.7713 45.1554 81.8165 45.2118C81.8503 45.2456 68.1823 56.1958 51.4469 69.5481L21.0209 93.8392L37.5195 93.8956L54.0068 93.952L50.3079 97.4028C48.278 99.2974 36.1437 110.631 23.3328 122.596C10.5218 134.55 0.0227316 144.384 0.0114543 144.429C-0.0449318 144.564 -0.552407 144.575 19.4421 143.91Z" fill="black"/>
<path d="M188.485 162.532C195.064 157.831 201.848 152.983 203.558 151.767L206.664 149.556L207.388 145.926C207.777 143.925 209.358 135.767 210.882 127.793C212.406 119.82 214.591 108.427 215.728 102.476C216.865 96.5256 218.117 90.0373 218.514 88.0641C218.898 86.0883 219.191 84.4656 219.157 84.4655C219.092 84.4524 216.561 85.9894 209.921 90.0896C207.376 91.6577 204.323 93.542 203.137 94.2625C201.95 94.996 200.315 96.0042 199.483 96.5122C198.66 97.015 197.989 97.4271 197.984 97.4193C197.968 97.3959 202.402 75.6024 205.581 60.0739C208.983 43.4419 209.116 42.7799 208.856 42.9302C208.703 43.0209 206.364 44.5087 203.656 46.2531C200.942 47.9898 197.883 49.9338 196.854 50.5843L194.975 51.7663L197.172 37.1273C198.387 29.0782 199.753 19.9386 200.227 16.8124C200.968 11.8895 201.092 10.8067 200.917 11.035C200.899 11.0584 194.459 23.5601 186.608 38.8102C178.757 54.0604 170.843 69.4195 169.034 72.9388C167.217 76.4632 165.775 79.3675 165.824 79.3909C165.879 79.4221 166.882 78.7663 168.317 77.7786C172.881 74.6315 186.181 65.5973 186.238 65.6156C186.277 65.6234 181.86 79.478 176.428 96.4035L166.558 127.186L177.991 119.64L189.417 112.1L188.446 116.186C187.913 118.429 184.734 131.844 181.377 146.006C178.015 160.161 175.276 171.787 175.289 171.823C175.312 171.943 174.967 172.184 188.485 162.532Z" fill="black"/>
<path d="M358.483 126.762C360.313 118.887 362.198 110.764 362.678 108.721L363.546 105.009L361.69 101.807C360.659 100.047 356.453 92.8812 352.325 85.8911C348.198 78.9011 342.306 68.9082 339.225 63.6914C336.145 58.4747 332.795 52.7787 331.789 51.0356C330.771 49.2991 329.918 47.8879 329.892 47.9102C329.835 47.9433 328.952 50.7698 326.68 58.236C325.807 61.0945 324.761 64.527 324.348 65.851C323.942 67.1865 323.382 69.0237 323.094 69.9546C322.808 70.8765 322.577 71.6289 322.568 71.6265C322.541 71.6192 311.461 52.3358 303.582 38.5823C295.14 23.854 294.802 23.2692 294.706 23.5538C294.651 23.7232 293.88 26.3858 293.001 29.4849C292.113 32.5817 291.103 36.0625 290.761 37.231L290.132 39.36L282.103 26.9236C277.694 20.0809 272.678 12.3196 270.967 9.66064C268.268 5.47695 267.645 4.58294 267.665 4.86946C267.667 4.89902 271.099 18.5368 275.289 35.1696C279.479 51.8023 283.694 68.5582 284.663 72.3948C285.63 76.2405 286.468 79.373 286.52 79.358C286.582 79.3454 286.901 78.1902 287.324 76.5006C288.669 71.1221 292.676 55.5517 292.731 55.5276C292.765 55.5077 298.61 68.8227 305.722 85.114L318.666 114.736L322.256 101.516L325.845 88.3052L327.817 92.0134C328.901 94.0485 335.383 106.216 342.226 119.062C349.06 131.905 354.69 142.438 354.724 142.457C354.82 142.531 354.72 142.941 358.483 126.762Z" fill="black"/>
</svg>
